<svg xmlns="http://www.w3.org/2000/svg" xmlns:xlink="http://www.w3.org/1999/xlink" viewBox="0 0 165.04 179.11"><defs><style>.cls-1{fill:none;}.cls-2{clip-path:url(#clip-path);}.cls-3{fill:#000101;}.cls-4{fill:#000102;}.cls-5{fill:#000203;}.cls-6{fill:#010204;}.cls-7{fill:#010305;}.cls-8{fill:#010306;}.cls-9{fill:#010407;}.cls-10{fill:#010508;}.cls-11{fill:#010509;}.cls-12{fill:#01060a;}.cls-13{fill:#02060b;}.cls-14{fill:#02070c;}.cls-15{fill:#02070d;}.cls-16{fill:#02080e;}.cls-17{fill:#02090f;}.cls-18{fill:#020910;}.cls-19{fill:#020a11;}.cls-20{fill:#030a12;}.cls-21{fill:#030b13;}.cls-22{fill:#030b14;}.cls-23{fill:#030c15;}.cls-24{fill:#030d16;}.cls-25{fill:#030d17;}.cls-26{fill:#030e18;}.cls-27{fill:#040e19;}.cls-28{fill:#040f1a;}.cls-29{fill:#04101b;}.cls-30{fill:#04101c;}.cls-31{fill:#04111d;}.cls-32{fill:#04111e;}.cls-33{fill:#04121f;}.cls-34{fill:#041220;}.cls-35{fill:#051321;}.cls-36{fill:#051422;}.cls-37{fill:#051423;}.cls-38{fill:#051524;}.cls-39{fill:#051525;}.cls-40{fill:#051626;}.cls-41{fill:#051627;}.cls-42{fill:#061728;}.cls-43{fill:#061829;}.cls-44{fill:#06182a;}.cls-45{fill:#06192b;}.cls-46{fill:#06192c;}.cls-47{fill:#061a2d;}.cls-48{fill:#061a2e;}.cls-49{fill:#071b2f;}.cls-50{fill:#071c30;}.cls-51{fill:#071c31;}.cls-52{fill:#071d32;}.cls-53{fill:#071d33;}.cls-54{fill:#071e34;}.cls-55{fill:#071e35;}.cls-56{fill:#081f36;}.cls-57{fill:#082037;}.cls-58{fill:#082038;}.cls-59{fill:#082139;}.cls-60{fill:#08213a;}.cls-61{fill:#08223b;}.cls-62{fill:#08223c;}.cls-63{fill:#09233d;}.cls-64{fill:#09243e;}.cls-65{fill:#09243f;}.cls-66{fill:#092540;}.cls-67{fill:#092541;}.cls-68{fill:#092642;}.cls-69{fill:#092743;}.cls-70{fill:#0a2744;}.cls-71{fill:#0a2845;}.cls-72{fill:#0a2846;}.cls-73{fill:#0a2947;}.cls-74{fill:#0a2948;}.cls-75{fill:#0a2a49;}.cls-76{fill:#0a2b4a;}.cls-77{fill:#0b2b4b;}.cls-78{fill:#0b2c4c;}.cls-79{fill:#0b2c4d;}.cls-80{fill:#0b2d4e;}.cls-81{fill:#0b2d4f;}.cls-82{fill:#0b2e50;}.cls-83{fill:#0b2f51;}.cls-84{fill:#0b2f52;}.cls-85{fill:#0c3053;}.cls-86{fill:#0c3054;}.cls-87{fill:#0c3155;}.cls-88{fill:#0c3156;}.cls-89{fill:#0c3257;}.cls-90{fill:#0c3358;}.cls-91{fill:#0c3359;}.cls-92{fill:#0d345a;}.cls-93{fill:#0d345b;}.cls-94{fill:#0d355c;}.cls-95{fill:#0d355d;}.cls-96{fill:#0d365e;}.cls-97{fill:#0d375f;}.cls-98{fill:#0d3760;}.cls-99{fill:#0e3861;}.cls-100{fill:#0e3862;}.cls-101{fill:#0e3963;}.cls-102{fill:#0e3964;}.cls-103{fill:#0e3a65;}.cls-104{fill:#0e3b66;}.cls-105{fill:#0e3b67;}.cls-106{fill:#0f3c68;}.cls-107{fill:#0f3c69;}.cls-108{fill:#0f3d6a;}.cls-109{fill:#0f3e6c;}.cls-110{fill:#0f3e6d;}.cls-111{fill:#0f3f6e;}.cls-112{fill:#0f3f6f;}.cls-113{fill:#104070;}.cls-114{fill:#104071;}.cls-115{fill:#104172;}.cls-116{fill:#104273;}.cls-117{fill:#104274;}.cls-118{fill:#104375;}.cls-119{fill:#104376;}.cls-120{fill:#147;}.cls-121{fill:#114478;}.cls-122{fill:#114579;}.cls-123{fill:#11467a;}.cls-124{fill:#11467b;}.cls-125{fill:#11477c;}.cls-126{fill:#11477d;}.cls-127{fill:#12487e;}.cls-128{fill:#12487f;}.cls-129{fill:#124980;}.cls-130{fill:#124a81;}.cls-131{fill:#124a82;}.cls-132{fill:#124b83;}.cls-133{fill:#124b84;}.cls-134{fill:#134c85;}.cls-135{fill:#134c86;}.cls-136{fill:#134d87;}.cls-137{fill:#134e88;}.cls-138{fill:#134e89;}.cls-139{fill:#134f8a;}.cls-140{fill:#134f8b;}.cls-141{fill:#13508c;}.cls-142{fill:#14508d;}.cls-143{fill:#14518e;}.cls-144{fill:#14528f;}.cls-145{fill:#145290;}.cls-146{fill:#145391;}.cls-147{fill:#145392;}.cls-148{fill:#145493;}.cls-149{fill:#155494;}.cls-150{fill:#155595;}.cls-151{fill:#155696;}.cls-152{fill:#155697;}.cls-153{fill:#155798;}.cls-154{fill:#155799;}.cls-155{fill:#15589a;}.cls-156{fill:#16599b;}.cls-157{fill:#16599c;}.cls-158{fill:#165a9d;}.cls-159{fill:#165a9e;}.cls-160{fill:#165b9f;}.cls-161{fill:#165ba0;}.cls-162{fill:#165ca1;}.cls-163{fill:#175da2;}.cls-164{fill:#175da3;}.cls-165{fill:#175ea4;}.cls-166{fill:#175ea5;}.cls-167{fill:#175fa6;}.cls-168{fill:#175fa7;}.cls-169{fill:#1760a8;}.cls-170{fill:#1861a9;}.cls-171{fill:#1861aa;}.cls-172{fill:#1862ab;}.cls-173{fill:#1862ac;}.cls-174{fill:#1863ad;}.cls-175{fill:#1863ae;}.cls-176{fill:#1864af;}.cls-177{fill:#1965b0;}.cls-178{fill:#1965b1;}.cls-179{fill:#1966b2;}.cls-180{fill:#1966b3;}.cls-181{fill:#1967b4;}.cls-182{fill:#1967b5;}.cls-183{fill:#1968b6;}.cls-184{fill:#1a69b7;}.cls-185{fill:#1a69b8;}.cls-186{fill:#1a6ab9;}.cls-187{fill:#1a6aba;}.cls-188{fill:#1a6bbb;}.cls-189{fill:#1a6bbc;}.cls-190{fill:#1a6cbd;}.cls-191{fill:#1a6dbe;}.cls-192{fill:#1b6dbf;}.cls-193{fill:#1b6ec0;}.cls-194{fill:#1b6ec1;}.cls-195{fill:#1b6fc2;}.cls-196{fill:#1b70c3;}.cls-197{fill:#1b70c4;}.cls-198{fill:#1b71c5;}.cls-199{fill:#1c71c6;}.cls-200{fill:#1c72c7;}.cls-201{fill:#1c72c8;}.cls-202{fill:#1c73c9;}.cls-203{fill:#1c74ca;}.cls-204{fill:#1c74cb;}.cls-205{fill:#1c75cc;}.cls-206{fill:#1d75cd;}.cls-207{fill:#1d76ce;}.cls-208{fill:#1d76cf;}.cls-209{fill:#1d77d0;}.cls-210{fill:#1d78d1;}.cls-211{fill:#1d78d2;}.cls-212{fill:#1d79d3;}.cls-213{fill:#1e79d4;}.cls-214{fill:#1e7ad5;}.cls-215{fill:#1e7ad6;}.cls-216{fill:#1e7bd7;}.cls-217{fill:#1d7cd8;}.cls-218{fill:#1d7dd8;}.cls-219{fill:#1c7ed9;}.cls-220{fill:#1c7fda;}.cls-221{fill:#1b80db;}.cls-222{fill:#1b81db;}.cls-223{fill:#1a82dc;}.cls-224{fill:#1a83dd;}.cls-225{fill:#1984de;}.cls-226{fill:#1985de;}.cls-227{fill:#1886df;}.cls-228{fill:#1787e0;}.cls-229{fill:#1788e0;}.cls-230{fill:#1689e1;}.cls-231{fill:#168ae2;}.cls-232{fill:#158be3;}.cls-233{fill:#158ce3;}.cls-234{fill:#148de4;}.cls-235{fill:#148ee5;}.cls-236{fill:#138fe6;}.cls-237{fill:#1390e6;}.cls-238{fill:#1291e7;}.cls-239{fill:#1192e8;}.cls-240{fill:#1193e8;}.cls-241{fill:#1094e9;}.cls-242{fill:#1095ea;}.cls-243{fill:#0f96eb;}.cls-244{fill:#0f98eb;}.cls-245{fill:#0e99ec;}.cls-246{fill:#0e9aed;}.cls-247{fill:#0d9bee;}.cls-248{fill:#0d9cee;}.cls-249{fill:#0c9def;}.cls-250{fill:#0b9ef0;}.cls-251{fill:#0b9ff0;}.cls-252{fill:#0aa0f1;}.cls-253{fill:#0aa1f2;}.cls-254{fill:#09a2f3;}.cls-255{fill:#09a3f3;}.cls-256{fill:#08a4f4;}.cls-257{fill:#08a5f5;}.cls-258{fill:#07a6f6;}.cls-259{fill:#07a7f6;}.cls-260{fill:#06a8f7;}.cls-261{fill:#05a9f8;}.cls-262{fill:#05aaf8;}.cls-263{fill:#04abf9;}.cls-264{fill:#04acfa;}.cls-265{fill:#03adfb;}.cls-266{fill:#03aefb;}.cls-267{fill:#02affc;}.cls-268{fill:#02b0fd;}.cls-269{fill:#01b1fe;}.cls-270{fill:#01b2fe;}.cls-271{fill:#00b3ff;}.cls-272{clip-path:url(#clip-path-2);}.cls-273{clip-path:url(#clip-path-3);}</style><clipPath id="clip-path" transform="translate(0.46 0.56)"><path class="cls-1" d="M66.08,46.71V2A2,2,0,0,0,62.94.36l-25,17.24a2,2,0,0,0-.86,1.64V138.51l29-20.31v-38"/></clipPath><clipPath id="clip-path-2" transform="translate(0.46 0.56)"><path class="cls-1" d="M37.08,138.51.85,163.87a2,2,0,0,0,.43,3.51l28.3,10.93a2,2,0,0,0,1.87-.23l92.09-64.71-27.71-16L66.08,118.2"/></clipPath><clipPath id="clip-path-3" transform="translate(0.46 0.56)"><path class="cls-1" d="M123.54,113.37l38,22.53a2,2,0,0,0,3-1.72V104.85a2,2,0,0,0-1-1.73L66.08,46.71V80.19L95.83,97.37"/></clipPath></defs><g id="图层_2" data-name="图层 2"><g id="图层_1-2" data-name="图层 1"><polygon class="cls-1" points="96.28 97.93 66.54 80.75 66.54 118.76 96.28 97.93"/><g class="cls-2"><polygon points="60.61 139.06 66.54 134.84 66.54 139.06 60.61 139.06"/><polygon points="60.41 139.06 66.54 134.7 66.54 134.84 60.61 139.06 60.41 139.06"/><polygon class="cls-3" points="60.21 139.06 66.54 134.56 66.54 134.7 60.41 139.06 60.21 139.06"/><polygon class="cls-4" points="60.01 139.06 66.54 134.42 66.54 134.56 60.21 139.06 60.01 139.06"/><polygon class="cls-5" points="59.81 139.06 66.54 134.27 66.54 134.42 60.01 139.06 59.81 139.06"/><polygon class="cls-6" points="59.61 139.06 66.54 134.13 66.54 134.27 59.81 139.06 59.61 139.06"/><polygon class="cls-7" points="59.41 139.06 66.54 133.99 66.54 134.13 59.61 139.06 59.41 139.06"/><polygon class="cls-8" points="59.21 139.06 66.54 133.85 66.54 133.99 59.41 139.06 59.21 139.06"/><polygon class="cls-9" points="59.01 139.06 66.54 133.7 66.54 133.85 59.21 139.06 59.01 139.06"/><polygon class="cls-10" points="58.81 139.06 66.54 133.56 66.54 133.7 59.01 139.06 58.81 139.06"/><polygon class="cls-11" points="58.61 139.06 66.54 133.42 66.54 133.56 58.81 139.06 58.61 139.06"/><polygon class="cls-12" points="58.41 139.06 66.54 133.28 66.54 133.42 58.61 139.06 58.41 139.06"/><polygon class="cls-13" points="58.21 139.06 66.54 133.13 66.54 133.28 58.41 139.06 58.21 139.06"/><polygon class="cls-14" points="58.01 139.06 66.54 132.99 66.54 133.13 58.21 139.06 58.01 139.06"/><polygon class="cls-15" points="57.81 139.06 66.54 132.85 66.54 132.99 58.01 139.06 57.81 139.06"/><polygon class="cls-16" points="57.61 139.06 66.54 132.71 66.54 132.85 57.81 139.06 57.61 139.06"/><polygon class="cls-17" points="57.41 139.06 66.54 132.56 66.54 132.71 57.61 139.06 57.41 139.06"/><polygon class="cls-18" points="57.21 139.06 66.54 132.42 66.54 132.56 57.41 139.06 57.21 139.06"/><polygon class="cls-19" points="57.01 139.06 66.54 132.28 66.54 132.42 57.21 139.06 57.01 139.06"/><polygon class="cls-20" points="56.81 139.06 66.54 132.13 66.54 132.28 57.01 139.06 56.81 139.06"/><polygon class="cls-21" points="56.61 139.06 66.54 131.99 66.54 132.13 56.81 139.06 56.61 139.06"/><polygon class="cls-22" points="56.41 139.06 66.54 131.85 66.54 131.99 56.61 139.06 56.41 139.06"/><polygon class="cls-23" points="56.21 139.06 66.54 131.71 66.54 131.85 56.41 139.06 56.21 139.06"/><polygon class="cls-24" points="56.01 139.06 66.54 131.56 66.54 131.71 56.21 139.06 56.01 139.06"/><polygon class="cls-25" points="55.81 139.06 66.54 131.42 66.54 131.56 56.01 139.06 55.81 139.06"/><polygon class="cls-26" points="55.61 139.06 66.54 131.28 66.54 131.42 55.81 139.06 55.61 139.06"/><polygon class="cls-27" points="55.41 139.06 66.54 131.14 66.54 131.28 55.61 139.06 55.41 139.06"/><polygon class="cls-28" points="55.21 139.06 66.54 130.99 66.54 131.14 55.41 139.06 55.21 139.06"/><polygon class="cls-29" points="55.01 139.06 66.54 130.85 66.54 130.99 55.21 139.06 55.01 139.06"/><polygon class="cls-30" points="54.81 139.06 66.54 130.71 66.54 130.85 55.01 139.06 54.81 139.06"/><polygon class="cls-31" points="54.61 139.06 66.54 130.57 66.54 130.71 54.81 139.06 54.61 139.06"/><polygon class="cls-32" points="54.41 139.06 66.54 130.42 66.54 130.57 54.61 139.06 54.41 139.06"/><polygon class="cls-33" points="54.21 139.06 66.54 130.28 66.54 130.42 54.41 139.06 54.21 139.06"/><polygon class="cls-34" points="54.01 139.06 66.54 130.14 66.54 130.28 54.21 139.06 54.01 139.06"/><polygon class="cls-35" points="53.81 139.06 66.54 130 66.54 130.14 54.01 139.06 53.81 139.06"/><polygon class="cls-36" points="53.61 139.06 66.54 129.85 66.54 130 53.81 139.06 53.61 139.06"/><polygon class="cls-37" points="53.41 139.06 66.54 129.71 66.54 129.85 53.61 139.06 53.41 139.06"/><polygon class="cls-38" points="53.21 139.06 66.54 129.57 66.54 129.71 53.41 139.06 53.21 139.06"/><polygon class="cls-39" points="53.01 139.06 66.54 129.43 66.54 129.57 53.21 139.06 53.01 139.06"/><polygon class="cls-40" points="52.81 139.06 66.54 129.28 66.54 129.43 53.01 139.06 52.81 139.06"/><polygon class="cls-41" points="52.61 139.06 66.54 129.14 66.54 129.28 52.81 139.06 52.61 139.06"/><polygon class="cls-42" points="52.41 139.06 66.54 129 66.54 129.14 52.61 139.06 52.41 139.06"/><polygon class="cls-43" points="52.21 139.06 66.54 128.85 66.54 129 52.41 139.06 52.21 139.06"/><polygon class="cls-44" points="52.01 139.06 66.54 128.71 66.54 128.85 52.21 139.06 52.01 139.06"/><polygon class="cls-45" points="51.81 139.06 66.54 128.57 66.54 128.71 52.01 139.06 51.81 139.06"/><polygon class="cls-46" points="51.61 139.06 66.54 128.43 66.54 128.57 51.81 139.06 51.61 139.06"/><polygon class="cls-47" points="51.41 139.06 66.54 128.28 66.54 128.43 51.61 139.06 51.41 139.06"/><polygon class="cls-48" points="51.21 139.06 66.54 128.14 66.54 128.28 51.41 139.06 51.21 139.06"/><polygon class="cls-49" points="51.01 139.06 66.54 128 66.54 128.14 51.21 139.06 51.01 139.06"/><polygon class="cls-50" points="50.81 139.06 66.54 127.86 66.54 128 51.01 139.06 50.81 139.06"/><polygon class="cls-51" points="50.61 139.06 66.54 127.71 66.54 127.86 50.81 139.06 50.61 139.06"/><polygon class="cls-52" points="50.41 139.06 66.54 127.57 66.54 127.71 50.61 139.06 50.41 139.06"/><polygon class="cls-53" points="50.21 139.06 66.54 127.43 66.54 127.57 50.41 139.06 50.21 139.06"/><polygon class="cls-54" points="50.01 139.06 66.54 127.29 66.54 127.43 50.21 139.06 50.01 139.06"/><polygon class="cls-55" points="49.81 139.06 66.54 127.14 66.54 127.29 50.01 139.06 49.81 139.06"/><polygon class="cls-56" points="49.61 139.06 66.54 127 66.54 127.14 49.81 139.06 49.61 139.06"/><polygon class="cls-57" points="49.41 139.06 66.54 126.86 66.54 127 49.61 139.06 49.41 139.06"/><polygon class="cls-58" points="49.21 139.06 66.54 126.72 66.54 126.86 49.41 139.06 49.21 139.06"/><polygon class="cls-59" points="49.01 139.06 66.54 126.57 66.54 126.72 49.21 139.06 49.01 139.06"/><polygon class="cls-60" points="48.81 139.06 66.54 126.43 66.54 126.57 49.01 139.06 48.81 139.06"/><polygon class="cls-61" points="48.61 139.06 66.54 126.29 66.54 126.43 48.81 139.06 48.61 139.06"/><polygon class="cls-62" points="48.41 139.06 66.54 126.15 66.54 126.29 48.61 139.06 48.41 139.06"/><polygon class="cls-63" points="48.21 139.06 66.54 126 66.54 126.15 48.41 139.06 48.21 139.06"/><polygon class="cls-64" points="48.01 139.06 66.54 125.86 66.54 126 48.21 139.06 48.01 139.06"/><polygon class="cls-65" points="47.81 139.06 66.54 125.72 66.54 125.86 48.01 139.06 47.81 139.06"/><polygon class="cls-66" points="47.61 139.06 66.54 125.58 66.54 125.72 47.81 139.06 47.61 139.06"/><polygon class="cls-67" points="47.41 139.06 66.54 125.43 66.54 125.58 47.61 139.06 47.41 139.06"/><polygon class="cls-68" points="47.21 139.06 66.54 125.29 66.54 125.43 47.41 139.06 47.21 139.06"/><polygon class="cls-69" points="47.01 139.06 66.54 125.15 66.54 125.29 47.21 139.06 47.01 139.06"/><polygon class="cls-70" points="46.81 139.06 66.54 125 66.54 125.15 47.01 139.06 46.81 139.06"/><polygon class="cls-71" points="46.61 139.06 66.54 124.86 66.54 125 46.81 139.06 46.61 139.06"/><polygon class="cls-72" points="46.41 139.06 66.54 124.72 66.54 124.86 46.61 139.06 46.41 139.06"/><polygon class="cls-73" points="46.21 139.06 66.54 124.58 66.54 124.72 46.41 139.06 46.21 139.06"/><polygon class="cls-74" points="46.01 139.06 66.54 124.44 66.54 124.58 46.21 139.06 46.01 139.06"/><polygon class="cls-75" points="45.81 139.06 66.54 124.29 66.54 124.44 46.01 139.06 45.81 139.06"/><polygon class="cls-76" points="45.61 139.06 66.54 124.15 66.54 124.29 45.81 139.06 45.61 139.06"/><polygon class="cls-77" points="45.41 139.06 66.54 124.01 66.54 124.15 45.61 139.06 45.41 139.06"/><polygon class="cls-78" points="45.21 139.06 66.54 123.86 66.54 124.01 45.41 139.06 45.21 139.06"/><polygon class="cls-79" points="45.01 139.06 66.54 123.72 66.54 123.86 45.21 139.06 45.01 139.06"/><polygon class="cls-80" points="44.81 139.06 66.54 123.58 66.54 123.72 45.01 139.06 44.81 139.06"/><polygon class="cls-81" points="44.61 139.06 66.54 123.44 66.54 123.58 44.81 139.06 44.61 139.06"/><polygon class="cls-82" points="44.41 139.06 66.54 123.29 66.54 123.44 44.61 139.06 44.41 139.06"/><polygon class="cls-83" points="44.21 139.06 66.54 123.15 66.54 123.29 44.41 139.06 44.21 139.06"/><polygon class="cls-84" points="44.01 139.06 66.54 123.01 66.54 123.15 44.21 139.06 44.01 139.06"/><polygon class="cls-85" points="43.81 139.06 66.54 122.87 66.54 123.01 44.01 139.06 43.81 139.06"/><polygon class="cls-86" points="43.61 139.06 66.54 122.72 66.54 122.87 43.81 139.06 43.61 139.06"/><polygon class="cls-87" points="43.41 139.06 66.54 122.58 66.54 122.72 43.61 139.06 43.41 139.06"/><polygon class="cls-88" points="43.21 139.06 66.54 122.44 66.54 122.58 43.41 139.06 43.21 139.06"/><polygon class="cls-89" points="43.01 139.06 66.54 122.3 66.54 122.44 43.21 139.06 43.01 139.06"/><polygon class="cls-90" points="42.81 139.06 66.54 122.15 66.54 122.3 43.01 139.06 42.81 139.06"/><polygon class="cls-91" points="42.61 139.06 66.54 122.01 66.54 122.15 42.81 139.06 42.61 139.06"/><polygon class="cls-92" points="42.41 139.06 66.54 121.87 66.54 122.01 42.61 139.06 42.41 139.06"/><polygon class="cls-93" points="42.21 139.06 66.54 121.72 66.54 121.87 42.41 139.06 42.21 139.06"/><polygon class="cls-94" points="42.01 139.06 66.54 121.58 66.54 121.72 42.21 139.06 42.01 139.06"/><polygon class="cls-95" points="41.81 139.06 66.54 121.44 66.54 121.58 42.01 139.06 41.81 139.06"/><polygon class="cls-96" points="41.61 139.06 66.54 121.3 66.54 121.44 41.81 139.06 41.61 139.06"/><polygon class="cls-97" points="41.41 139.06 66.54 121.16 66.54 121.3 41.61 139.06 41.41 139.06"/><polygon class="cls-98" points="41.21 139.06 66.54 121.01 66.54 121.16 41.41 139.06 41.21 139.06"/><polygon class="cls-99" points="41.01 139.06 66.54 120.87 66.54 121.01 41.21 139.06 41.01 139.06"/><polygon class="cls-100" points="40.81 139.06 66.54 120.73 66.54 120.87 41.01 139.06 40.81 139.06"/><polygon class="cls-101" points="40.61 139.06 66.54 120.58 66.54 120.73 40.81 139.06 40.61 139.06"/><polygon class="cls-102" points="40.41 139.06 66.54 120.44 66.54 120.58 40.61 139.06 40.41 139.06"/><polygon class="cls-103" points="40.21 139.06 66.54 120.3 66.54 120.44 40.41 139.06 40.21 139.06"/><polygon class="cls-104" points="40.01 139.06 66.54 120.16 66.54 120.3 40.21 139.06 40.01 139.06"/><polygon class="cls-105" points="39.81 139.06 66.54 120.01 66.54 120.16 40.01 139.06 39.81 139.06"/><polygon class="cls-106" points="39.61 139.06 66.54 119.87 66.54 120.01 39.81 139.06 39.61 139.06"/><polygon class="cls-107" points="39.41 139.06 66.54 119.73 66.54 119.87 39.61 139.06 39.41 139.06"/><polygon class="cls-108" points="39.21 139.06 66.54 119.59 66.54 119.73 39.41 139.06 39.21 139.06"/><polygon class="cls-109" points="39.01 139.06 66.54 119.44 66.54 119.59 39.21 139.06 39.01 139.06"/><polygon class="cls-110" points="38.81 139.06 66.54 119.3 66.54 119.44 39.01 139.06 38.81 139.06"/><polygon class="cls-111" points="38.61 139.06 66.54 119.16 66.54 119.3 38.81 139.06 38.61 139.06"/><polygon class="cls-112" points="38.41 139.06 66.54 119.02 66.54 119.16 38.61 139.06 38.41 139.06"/><polygon class="cls-113" points="38.21 139.06 66.54 118.87 66.54 119.02 38.41 139.06 38.21 139.06"/><polygon class="cls-114" points="38.01 139.06 66.54 118.73 66.54 118.87 38.21 139.06 38.01 139.06"/><polygon class="cls-115" points="37.81 139.06 66.54 118.59 66.54 118.73 38.01 139.06 37.81 139.06"/><polygon class="cls-116" points="37.61 139.06 66.54 118.45 66.54 118.59 37.81 139.06 37.61 139.06"/><polygon class="cls-117" points="37.54 138.97 66.54 118.3 66.54 118.45 37.61 139.06 37.54 139.06 37.54 138.97"/><polygon class="cls-118" points="37.54 138.83 66.54 118.16 66.54 118.3 37.54 138.97 37.54 138.83"/><polygon class="cls-119" points="37.54 138.69 66.54 118.02 66.54 118.16 37.54 138.83 37.54 138.69"/><polygon class="cls-120" points="37.54 138.54 66.54 117.88 66.54 118.02 37.54 138.69 37.54 138.54"/><polygon class="cls-121" points="37.54 138.4 66.54 117.73 66.54 117.88 37.54 138.54 37.54 138.4"/><polygon class="cls-122" points="37.54 138.26 66.54 117.59 66.54 117.73 37.54 138.4 37.54 138.26"/><polygon class="cls-123" points="37.54 138.12 66.54 117.45 66.54 117.59 37.54 138.26 37.54 138.12"/><polygon class="cls-124" points="37.54 137.97 66.54 117.31 66.54 117.45 37.54 138.12 37.54 137.97"/><polygon class="cls-125" points="37.54 137.83 66.54 117.16 66.54 117.31 37.54 137.97 37.54 137.83"/><polygon class="cls-126" points="37.54 137.69 66.54 117.02 66.54 117.16 37.54 137.83 37.54 137.69"/><polygon class="cls-127" points="37.54 137.55 66.54 116.88 66.54 117.02 37.54 137.69 37.54 137.55"/><polygon class="cls-128" points="37.54 137.4 66.54 116.73 66.54 116.88 37.54 137.55 37.54 137.4"/><polygon class="cls-129" points="37.54 137.26 66.54 116.59 66.54 116.73 37.54 137.4 37.54 137.26"/><polygon class="cls-130" points="37.54 137.12 66.54 116.45 66.54 116.59 37.54 137.26 37.54 137.12"/><polygon class="cls-131" points="37.54 136.98 66.54 116.31 66.54 116.45 37.54 137.12 37.54 136.98"/><polygon class="cls-132" points="37.54 136.83 66.54 116.17 66.54 116.31 37.54 136.98 37.54 136.83"/><polygon class="cls-133" points="37.54 136.69 66.54 116.02 66.54 116.17 37.54 136.83 37.54 136.69"/><polygon class="cls-134" points="37.54 136.55 66.54 115.88 66.54 116.02 37.54 136.69 37.54 136.55"/><polygon class="cls-135" points="37.54 136.41 66.54 115.74 66.54 115.88 37.54 136.55 37.54 136.41"/><polygon class="cls-136" points="37.54 136.26 66.54 115.59 66.54 115.74 37.54 136.41 37.54 136.26"/><polygon class="cls-137" points="37.54 136.12 66.54 115.45 66.54 115.59 37.54 136.26 37.54 136.12"/><polygon class="cls-138" points="37.54 135.98 66.54 115.31 66.54 115.45 37.54 136.12 37.54 135.98"/><polygon class="cls-139" points="37.54 135.84 66.54 115.17 66.54 115.31 37.54 135.98 37.54 135.84"/><polygon class="cls-140" points="37.54 135.69 66.54 115.02 66.54 115.17 37.54 135.84 37.54 135.69"/><polygon class="cls-141" points="37.54 135.55 66.54 114.88 66.54 115.02 37.54 135.69 37.54 135.55"/><polygon class="cls-142" points="37.54 135.41 66.54 114.74 66.54 114.88 37.54 135.55 37.54 135.41"/><polygon class="cls-143" points="37.54 135.26 66.54 114.6 66.54 114.74 37.54 135.41 37.54 135.26"/><polygon class="cls-144" points="37.54 135.12 66.54 114.45 66.54 114.6 37.54 135.26 37.54 135.12"/><polygon class="cls-145" points="37.54 134.98 66.54 114.31 66.54 114.45 37.54 135.12 37.54 134.98"/><polygon class="cls-146" points="37.54 134.84 66.54 114.17 66.54 114.31 37.54 134.98 37.54 134.84"/><polygon class="cls-147" points="37.54 134.69 66.54 114.03 66.54 114.17 37.54 134.84 37.54 134.69"/><polygon class="cls-148" points="37.54 134.55 66.54 113.88 66.54 114.03 37.54 134.69 37.54 134.55"/><polygon class="cls-149" points="37.54 134.41 66.54 113.74 66.54 113.88 37.54 134.55 37.54 134.41"/><polygon class="cls-150" points="37.54 134.27 66.54 113.6 66.54 113.74 37.54 134.41 37.54 134.27"/><polygon class="cls-151" points="37.54 134.13 66.54 113.45 66.54 113.6 37.54 134.27 37.54 134.13"/><polygon class="cls-152" points="37.54 133.98 66.54 113.31 66.54 113.45 37.54 134.13 37.54 133.98"/><polygon class="cls-153" points="37.54 133.84 66.54 113.17 66.54 113.31 37.54 133.98 37.54 133.84"/><polygon class="cls-154" points="37.54 133.7 66.54 113.03 66.54 113.17 37.54 133.84 37.54 133.7"/><polygon class="cls-155" points="37.54 133.55 66.54 112.89 66.54 113.03 37.54 133.7 37.54 133.55"/><polygon class="cls-156" points="37.54 133.41 66.54 112.74 66.54 112.89 37.54 133.55 37.54 133.41"/><polygon class="cls-157" points="37.54 133.27 66.54 112.6 66.54 112.74 37.54 133.41 37.54 133.27"/><polygon class="cls-158" points="37.54 133.13 66.54 112.46 66.54 112.6 37.54 133.27 37.54 133.13"/><polygon class="cls-159" points="37.54 132.98 66.54 112.31 66.54 112.46 37.54 133.13 37.54 132.98"/><polygon class="cls-160" points="37.54 132.84 66.54 112.17 66.54 112.31 37.54 132.98 37.54 132.84"/><polygon class="cls-161" points="37.54 132.7 66.54 112.03 66.54 112.17 37.54 132.84 37.54 132.7"/><polygon class="cls-162" points="37.54 132.56 66.54 111.89 66.54 112.03 37.54 132.7 37.54 132.56"/><polygon class="cls-163" points="37.54 132.41 66.54 111.74 66.54 111.89 37.54 132.56 37.54 132.41"/><polygon class="cls-164" points="37.54 132.27 66.54 111.6 66.54 111.74 37.54 132.41 37.54 132.27"/><polygon class="cls-165" points="37.54 132.13 66.54 111.46 66.54 111.6 37.54 132.27 37.54 132.13"/><polygon class="cls-166" points="37.54 131.99 66.54 111.32 66.54 111.46 37.54 132.13 37.54 131.99"/><polygon class="cls-167" points="37.54 131.84 66.54 111.17 66.54 111.32 37.54 131.99 37.54 131.84"/><polygon class="cls-168" points="37.54 131.7 66.54 111.03 66.54 111.17 37.54 131.84 37.54 131.7"/><polygon class="cls-169" points="37.54 131.56 66.54 110.89 66.54 111.03 37.54 131.7 37.54 131.56"/><polygon class="cls-170" points="37.54 131.41 66.54 110.75 66.54 110.89 37.54 131.56 37.54 131.41"/><polygon class="cls-171" points="37.54 131.27 66.54 110.6 66.54 110.75 37.54 131.41 37.54 131.27"/><polygon class="cls-172" points="37.54 131.13 66.54 110.46 66.54 110.6 37.54 131.27 37.54 131.13"/><polygon class="cls-173" points="37.54 130.99 66.54 110.32 66.54 110.46 37.54 131.13 37.54 130.99"/><polygon class="cls-174" points="37.54 130.84 66.54 110.18 66.54 110.32 37.54 130.99 37.54 130.84"/><polygon class="cls-175" points="37.54 130.7 66.54 110.03 66.54 110.18 37.54 130.84 37.54 130.7"/><polygon class="cls-176" points="37.54 130.56 66.54 109.89 66.54 110.03 37.54 130.7 37.54 130.56"/><polygon class="cls-177" points="37.54 130.42 66.54 109.75 66.54 109.89 37.54 130.56 37.54 130.42"/><polygon class="cls-178" points="37.54 130.28 66.54 109.61 66.54 109.75 37.54 130.42 37.54 130.28"/><polygon class="cls-179" points="37.54 130.13 66.54 109.46 66.54 109.61 37.54 130.28 37.54 130.13"/><polygon class="cls-180" points="37.54 129.99 66.54 109.32 66.54 109.46 37.54 130.13 37.54 129.99"/><polygon class="cls-181" points="37.54 129.85 66.54 109.18 66.54 109.32 37.54 129.99 37.54 129.85"/><polygon class="cls-182" points="37.54 129.7 66.54 109.03 66.54 109.18 37.54 129.85 37.54 129.7"/><polygon class="cls-183" points="37.54 129.56 66.54 108.89 66.54 109.03 37.54 129.7 37.54 129.56"/><polygon class="cls-184" points="37.54 129.42 66.54 108.75 66.54 108.89 37.54 129.56 37.54 129.42"/><polygon class="cls-185" points="37.54 129.28 66.54 108.61 66.54 108.75 37.54 129.42 37.54 129.28"/><polygon class="cls-186" points="37.54 129.13 66.54 108.47 66.54 108.61 37.54 129.28 37.54 129.13"/><polygon class="cls-187" points="37.54 128.99 66.54 108.32 66.54 108.47 37.54 129.13 37.54 128.99"/><polygon class="cls-188" points="37.54 128.85 66.54 108.18 66.54 108.32 37.54 128.99 37.54 128.85"/><polygon class="cls-189" points="37.54 128.71 66.54 108.04 66.54 108.18 37.54 128.85 37.54 128.71"/><polygon class="cls-190" points="37.54 128.56 66.54 107.89 66.54 108.04 37.54 128.71 37.54 128.56"/><polygon class="cls-191" points="37.54 128.42 66.54 107.75 66.54 107.89 37.54 128.56 37.54 128.42"/><polygon class="cls-192" points="37.54 128.28 66.54 107.61 66.54 107.75 37.54 128.42 37.54 128.28"/><polygon class="cls-193" points="37.54 128.14 66.54 107.47 66.54 107.61 37.54 128.28 37.54 128.14"/><polygon class="cls-194" points="37.54 127.99 66.54 107.32 66.54 107.47 37.54 128.14 37.54 127.99"/><polygon class="cls-195" points="37.54 127.85 66.54 107.18 66.54 107.32 37.54 127.99 37.54 127.85"/><polygon class="cls-196" points="37.54 127.71 66.54 107.04 66.54 107.18 37.54 127.85 37.54 127.71"/><polygon class="cls-197" points="37.54 127.57 66.54 106.9 66.54 107.04 37.54 127.71 37.54 127.57"/><polygon class="cls-198" points="37.54 127.42 66.54 106.75 66.54 106.9 37.54 127.57 37.54 127.42"/><polygon class="cls-199" points="37.54 127.28 66.54 106.61 66.54 106.75 37.54 127.42 37.54 127.28"/><polygon class="cls-200" points="37.54 127.14 66.54 106.47 66.54 106.61 37.54 127.28 37.54 127.14"/><polygon class="cls-201" points="37.54 127 66.54 106.33 66.54 106.47 37.54 127.14 37.54 127"/><polygon class="cls-202" points="37.54 126.85 66.54 106.18 66.54 106.33 37.54 127 37.54 126.85"/><polygon class="cls-203" points="37.54 126.71 66.54 106.04 66.54 106.18 37.54 126.85 37.54 126.71"/><polygon class="cls-204" points="37.54 126.57 66.54 105.9 66.54 106.04 37.54 126.71 37.54 126.57"/><polygon class="cls-205" points="37.54 126.42 66.54 105.76 66.54 105.9 37.54 126.57 37.54 126.42"/><polygon class="cls-206" points="37.54 126.28 66.54 105.61 66.54 105.76 37.54 126.42 37.54 126.28"/><polygon class="cls-207" points="37.54 126.14 66.54 105.47 66.54 105.61 37.54 126.28 37.54 126.14"/><polygon class="cls-208" points="37.54 126 66.54 105.33 66.54 105.47 37.54 126.14 37.54 126"/><polygon class="cls-209" points="37.54 125.86 66.54 105.19 66.54 105.33 37.54 126 37.54 125.86"/><polygon class="cls-210" points="37.54 125.71 66.54 105.04 66.54 105.19 37.54 125.86 37.54 125.71"/><polygon class="cls-211" points="37.54 125.57 66.54 104.9 66.54 105.04 37.54 125.71 37.54 125.57"/><polygon class="cls-212" points="37.54 125.43 66.54 104.76 66.54 104.9 37.54 125.57 37.54 125.43"/><polygon class="cls-213" points="37.54 125.28 66.54 104.61 66.54 104.76 37.54 125.43 37.54 125.28"/><polygon class="cls-214" points="37.54 125.14 66.54 104.47 66.54 104.61 37.54 125.28 37.54 125.14"/><polygon class="cls-215" points="37.54 125 66.54 104.33 66.54 104.47 37.54 125.14 37.54 125"/><polygon class="cls-216" points="37.54 124.86 66.54 104.19 66.54 104.33 37.54 125 37.54 124.86"/><polygon class="cls-216" points="37.54 122.6 66.54 101.93 66.54 104.19 37.54 124.86 37.54 122.6"/><polygon class="cls-217" points="37.54 120.34 66.54 99.67 66.54 101.93 37.54 122.6 37.54 120.34"/><polygon class="cls-218" points="37.54 118.08 66.54 97.41 66.54 99.67 37.54 120.34 37.54 118.08"/><polygon class="cls-219" points="37.54 115.82 66.54 95.15 66.54 97.41 37.54 118.08 37.54 115.82"/><polygon class="cls-220" points="37.54 113.56 66.54 92.89 66.54 95.15 37.54 115.82 37.54 113.56"/><polygon class="cls-221" points="37.54 111.3 66.54 90.63 66.54 92.89 37.54 113.56 37.54 111.3"/><polygon class="cls-222" points="37.54 109.04 66.54 88.37 66.54 90.63 37.54 111.3 37.54 109.04"/><polygon class="cls-223" points="37.54 106.78 66.54 86.11 66.54 88.37 37.54 109.04 37.54 106.78"/><polygon class="cls-224" points="37.54 104.52 66.54 83.85 66.54 86.11 37.54 106.78 37.54 104.52"/><polygon class="cls-225" points="37.54 102.26 66.54 81.59 66.54 83.85 37.54 104.52 37.54 102.26"/><polygon class="cls-226" points="37.54 100 66.54 79.33 66.54 81.59 37.54 102.26 37.54 100"/><polygon class="cls-227" points="37.54 97.74 66.54 77.07 66.54 79.33 37.54 100 37.54 97.74"/><polygon class="cls-228" points="37.54 95.48 66.54 74.81 66.54 77.07 37.54 97.74 37.54 95.48"/><polygon class="cls-229" points="37.54 93.22 66.54 72.55 66.54 74.81 37.54 95.48 37.54 93.22"/><polygon class="cls-230" points="37.54 90.96 66.54 70.29 66.54 72.55 37.54 93.22 37.54 90.96"/><polygon class="cls-231" points="37.54 88.7 66.54 68.03 66.54 70.29 37.54 90.96 37.54 88.7"/><polygon class="cls-232" points="37.54 86.44 66.54 65.77 66.54 68.03 37.54 88.7 37.54 86.44"/><polygon class="cls-233" points="37.54 84.18 66.54 63.51 66.54 65.77 37.54 86.44 37.54 84.18"/><polygon class="cls-234" points="37.54 81.92 66.54 61.25 66.54 63.51 37.54 84.18 37.54 81.92"/><polygon class="cls-235" points="37.54 79.66 66.54 58.99 66.54 61.25 37.54 81.92 37.54 79.66"/><polygon class="cls-236" points="37.54 77.4 66.54 56.73 66.54 58.99 37.54 79.66 37.54 77.4"/><polygon class="cls-237" points="37.54 75.14 66.54 54.47 66.54 56.73 37.54 77.4 37.54 75.14"/><polygon class="cls-238" points="37.54 72.88 66.54 52.21 66.54 54.47 37.54 75.14 37.54 72.88"/><polygon class="cls-239" points="37.54 70.62 66.54 49.95 66.54 52.21 37.54 72.88 37.54 70.62"/><polygon class="cls-240" points="37.54 68.36 66.54 47.69 66.54 49.95 37.54 70.62 37.54 68.36"/><polygon class="cls-241" points="37.54 66.1 66.54 45.43 66.54 47.69 37.54 68.36 37.54 66.1"/><polygon class="cls-242" points="37.54 63.84 66.54 43.17 66.54 45.43 37.54 66.1 37.54 63.84"/><polygon class="cls-243" points="37.54 61.58 66.54 40.91 66.54 43.17 37.54 63.84 37.54 61.58"/><polygon class="cls-244" points="37.54 59.32 66.54 38.65 66.54 40.91 37.54 61.58 37.54 59.32"/><polygon class="cls-245" points="37.54 57.06 66.54 36.39 66.54 38.65 37.54 59.32 37.54 57.06"/><polygon class="cls-246" points="37.54 54.8 66.54 34.13 66.54 36.39 37.54 57.06 37.54 54.8"/><polygon class="cls-247" points="37.54 52.54 66.54 31.87 66.54 34.13 37.54 54.8 37.54 52.54"/><polygon class="cls-248" points="37.54 50.28 66.54 29.61 66.54 31.87 37.54 52.54 37.54 50.28"/><polygon class="cls-249" points="37.54 48.02 66.54 27.35 66.54 29.61 37.54 50.28 37.54 48.02"/><polygon class="cls-250" points="37.54 45.76 66.54 25.09 66.54 27.35 37.54 48.02 37.54 45.76"/><polygon class="cls-251" points="37.54 43.5 66.54 22.83 66.54 25.09 37.54 45.76 37.54 43.5"/><polygon class="cls-252" points="37.54 41.24 66.54 20.57 66.54 22.83 37.54 43.5 37.54 41.24"/><polygon class="cls-253" points="37.54 38.98 66.54 18.31 66.54 20.57 37.54 41.24 37.54 38.98"/><polygon class="cls-254" points="37.54 36.72 66.54 16.05 66.54 18.31 37.54 38.98 37.54 36.72"/><polygon class="cls-255" points="37.54 34.46 66.54 13.79 66.54 16.05 37.54 36.72 37.54 34.46"/><polygon class="cls-256" points="37.54 32.2 66.54 11.53 66.54 13.79 37.54 34.46 37.54 32.2"/><polygon class="cls-257" points="37.54 29.94 66.54 9.27 66.54 11.53 37.54 32.2 37.54 29.94"/><polygon class="cls-258" points="37.54 27.68 66.54 7.01 66.54 9.27 37.54 29.94 37.54 27.68"/><polygon class="cls-259" points="37.54 25.42 66.54 4.75 66.54 7.01 37.54 27.68 37.54 25.42"/><polygon class="cls-260" points="37.54 23.16 66.54 2.49 66.54 4.75 37.54 25.42 37.54 23.16"/><polygon class="cls-261" points="37.54 20.9 66.54 0.23 66.54 2.49 37.54 23.16 37.54 20.9"/><polygon class="cls-262" points="37.54 18.64 63.69 0 66.54 0 66.54 0.23 37.54 20.9 37.54 18.64"/><polygon class="cls-263" points="37.54 16.38 60.52 0 63.69 0 37.54 18.64 37.54 16.38"/><polygon class="cls-264" points="37.54 14.12 57.34 0 60.52 0 37.54 16.38 37.54 14.12"/><polygon class="cls-265" points="37.54 11.86 54.17 0 57.34 0 37.54 14.12 37.54 11.86"/><polygon class="cls-266" points="37.54 9.6 51 0 54.17 0 37.54 11.86 37.54 9.6"/><polygon class="cls-267" points="37.54 7.34 47.83 0 51 0 37.54 9.6 37.54 7.34"/><polygon class="cls-268" points="37.54 5.08 44.66 0 47.83 0 37.54 7.34 37.54 5.08"/><polygon class="cls-269" points="37.54 2.82 41.49 0 44.66 0 37.54 5.08 37.54 2.82"/><polygon class="cls-270" points="37.54 0.56 38.32 0 41.49 0 37.54 2.82 37.54 0.56"/><polygon class="cls-271" points="38.32 0 37.54 0.56 37.54 0 38.32 0"/></g><g class="cls-272"><polygon points="124 102.16 116.76 97.93 124 97.93 124 102.16"/><polygon points="124 102.27 116.57 97.93 116.76 97.93 124 102.16 124 102.27"/><polygon class="cls-3" points="124 102.38 116.38 97.93 116.57 97.93 124 102.27 124 102.38"/><polygon class="cls-4" points="124 102.49 116.2 97.93 116.38 97.93 124 102.38 124 102.49"/><polygon class="cls-5" points="124 102.6 116.01 97.93 116.2 97.93 124 102.49 124 102.6"/><polygon class="cls-6" points="124 102.71 115.82 97.93 116.01 97.93 124 102.6 124 102.71"/><polygon class="cls-7" points="124 102.82 115.63 97.93 115.82 97.93 124 102.71 124 102.82"/><polygon class="cls-8" points="124 102.93 115.45 97.93 115.63 97.93 124 102.82 124 102.93"/><polygon class="cls-9" points="124 103.04 115.26 97.93 115.45 97.93 124 102.93 124 103.04"/><polygon class="cls-10" points="124 103.15 115.07 97.93 115.26 97.93 124 103.04 124 103.15"/><polygon class="cls-11" points="124 103.26 114.89 97.93 115.07 97.93 124 103.15 124 103.26"/><polygon class="cls-12" points="124 103.37 114.7 97.93 114.89 97.93 124 103.26 124 103.37"/><polygon class="cls-13" points="124 103.48 114.51 97.93 114.7 97.93 124 103.37 124 103.48"/><polygon class="cls-14" points="124 103.59 114.32 97.93 114.51 97.93 124 103.48 124 103.59"/><polygon class="cls-15" points="124 103.7 114.14 97.93 114.32 97.93 124 103.59 124 103.7"/><polygon class="cls-16" points="124 103.81 113.95 97.93 114.14 97.93 124 103.7 124 103.81"/><polygon class="cls-17" points="124 103.92 113.76 97.93 113.95 97.93 124 103.81 124 103.92"/><polygon class="cls-18" points="124 104.03 113.57 97.93 113.76 97.93 124 103.92 124 104.03"/><polygon class="cls-19" points="124 104.14 113.39 97.93 113.57 97.93 124 104.03 124 104.14"/><polygon class="cls-20" points="124 104.25 113.2 97.93 113.39 97.93 124 104.14 124 104.25"/><polygon class="cls-21" points="124 104.36 113.01 97.93 113.2 97.93 124 104.25 124 104.36"/><polygon class="cls-22" points="124 104.46 112.82 97.93 113.01 97.93 124 104.36 124 104.46"/><polygon class="cls-23" points="124 104.57 112.64 97.93 112.82 97.93 124 104.46 124 104.57"/><polygon class="cls-24" points="124 104.68 112.45 97.93 112.64 97.93 124 104.57 124 104.68"/><polygon class="cls-25" points="124 104.79 112.26 97.93 112.45 97.93 124 104.68 124 104.79"/><polygon class="cls-26" points="124 104.9 112.07 97.93 112.26 97.93 124 104.79 124 104.9"/><polygon class="cls-27" points="124 105.01 111.89 97.93 112.07 97.93 124 104.9 124 105.01"/><polygon class="cls-28" points="124 105.12 111.7 97.93 111.89 97.93 124 105.01 124 105.12"/><polygon class="cls-29" points="124 105.23 111.51 97.93 111.7 97.93 124 105.12 124 105.23"/><polygon class="cls-30" points="124 105.34 111.32 97.93 111.51 97.93 124 105.23 124 105.34"/><polygon class="cls-31" points="124 105.45 111.14 97.93 111.32 97.93 124 105.34 124 105.45"/><polygon class="cls-32" points="124 105.56 110.95 97.93 111.14 97.93 124 105.45 124 105.56"/><polygon class="cls-33" points="124 105.67 110.76 97.93 110.95 97.93 124 105.56 124 105.67"/><polygon class="cls-34" points="124 105.78 110.58 97.93 110.76 97.93 124 105.67 124 105.78"/><polygon class="cls-35" points="124 105.89 110.39 97.93 110.58 97.93 124 105.78 124 105.89"/><polygon class="cls-36" points="124 106 110.2 97.93 110.39 97.93 124 105.89 124 106"/><polygon class="cls-37" points="124 106.11 110.01 97.93 110.2 97.93 124 106 124 106.11"/><polygon class="cls-38" points="124 106.22 109.83 97.93 110.01 97.93 124 106.11 124 106.22"/><polygon class="cls-39" points="124 106.33 109.64 97.93 109.83 97.93 124 106.22 124 106.33"/><polygon class="cls-40" points="124 106.44 109.45 97.93 109.64 97.93 124 106.33 124 106.44"/><polygon class="cls-41" points="124 106.55 109.26 97.93 109.45 97.93 124 106.44 124 106.55"/><polygon class="cls-42" points="124 106.66 109.08 97.93 109.26 97.93 124 106.55 124 106.66"/><polygon class="cls-43" points="124 106.77 108.89 97.93 109.08 97.93 124 106.66 124 106.77"/><polygon class="cls-44" points="124 106.88 108.7 97.93 108.89 97.93 124 106.77 124 106.88"/><polygon class="cls-45" points="124 106.99 108.51 97.93 108.7 97.93 124 106.88 124 106.99"/><polygon class="cls-46" points="124 107.09 108.33 97.93 108.51 97.93 124 106.99 124 107.09"/><polygon class="cls-47" points="124 107.2 108.14 97.93 108.33 97.93 124 107.09 124 107.2"/><polygon class="cls-48" points="124 107.31 107.95 97.93 108.14 97.93 124 107.2 124 107.31"/><polygon class="cls-49" points="124 107.42 107.76 97.93 107.95 97.93 124 107.31 124 107.42"/><polygon class="cls-50" points="124 107.53 107.58 97.93 107.76 97.93 124 107.42 124 107.53"/><polygon class="cls-51" points="124 107.64 107.39 97.93 107.58 97.93 124 107.53 124 107.64"/><polygon class="cls-52" points="124 107.75 107.2 97.93 107.39 97.93 124 107.64 124 107.75"/><polygon class="cls-53" points="124 107.86 107.01 97.93 107.2 97.93 124 107.75 124 107.86"/><polygon class="cls-54" points="124 107.97 106.83 97.93 107.01 97.93 124 107.86 124 107.97"/><polygon class="cls-55" points="124 108.08 106.64 97.93 106.83 97.93 124 107.97 124 108.08"/><polygon class="cls-56" points="124 108.19 106.45 97.93 106.64 97.93 124 108.08 124 108.19"/><polygon class="cls-57" points="124 108.3 106.27 97.93 106.45 97.93 124 108.19 124 108.3"/><polygon class="cls-58" points="124 108.41 106.08 97.93 106.27 97.93 124 108.3 124 108.41"/><polygon class="cls-59" points="124 108.52 105.89 97.93 106.08 97.93 124 108.41 124 108.52"/><polygon class="cls-60" points="124 108.63 105.7 97.93 105.89 97.93 124 108.52 124 108.63"/><polygon class="cls-61" points="124 108.74 105.52 97.93 105.7 97.93 124 108.63 124 108.74"/><polygon class="cls-62" points="124 108.85 105.33 97.93 105.52 97.93 124 108.74 124 108.85"/><polygon class="cls-63" points="124 108.96 105.14 97.93 105.33 97.93 124 108.85 124 108.96"/><polygon class="cls-64" points="124 109.07 104.95 97.93 105.14 97.93 124 108.96 124 109.07"/><polygon class="cls-65" points="124 109.18 104.77 97.93 104.95 97.93 124 109.07 124 109.18"/><polygon class="cls-66" points="124 109.29 104.58 97.93 104.77 97.93 124 109.18 124 109.29"/><polygon class="cls-67" points="124 109.4 104.39 97.93 104.58 97.93 124 109.29 124 109.4"/><polygon class="cls-68" points="124 109.51 104.2 97.93 104.39 97.93 124 109.4 124 109.51"/><polygon class="cls-69" points="124 109.62 104.02 97.93 104.2 97.93 124 109.51 124 109.62"/><polygon class="cls-70" points="124 109.73 103.83 97.93 104.02 97.93 124 109.62 124 109.73"/><polygon class="cls-71" points="124 109.84 103.64 97.93 103.83 97.93 124 109.73 124 109.84"/><polygon class="cls-72" points="124 109.94 103.45 97.93 103.64 97.93 124 109.84 124 109.94"/><polygon class="cls-73" points="124 110.06 103.27 97.93 103.45 97.93 124 109.94 124 110.06"/><polygon class="cls-74" points="124 110.17 103.08 97.93 103.27 97.93 124 110.06 124 110.17"/><polygon class="cls-75" points="124 110.27 102.89 97.93 103.08 97.93 124 110.17 124 110.27"/><polygon class="cls-76" points="124 110.38 102.7 97.93 102.89 97.93 124 110.27 124 110.38"/><polygon class="cls-77" points="124 110.49 102.52 97.93 102.7 97.93 124 110.38 124 110.49"/><polygon class="cls-78" points="124 110.6 102.33 97.93 102.52 97.93 124 110.49 124 110.6"/><polygon class="cls-79" points="124 110.71 102.14 97.93 102.33 97.93 124 110.6 124 110.71"/><polygon class="cls-80" points="124 110.82 101.95 97.93 102.14 97.93 124 110.71 124 110.82"/><polygon class="cls-81" points="124 110.93 101.77 97.93 101.95 97.93 124 110.82 124 110.93"/><polygon class="cls-82" points="124 111.04 101.58 97.93 101.77 97.93 124 110.93 124 111.04"/><polygon class="cls-83" points="124 111.15 101.39 97.93 101.58 97.93 124 111.04 124 111.15"/><polygon class="cls-84" points="124 111.26 101.21 97.93 101.39 97.93 124 111.15 124 111.26"/><polygon class="cls-85" points="124 111.37 101.02 97.93 101.21 97.93 124 111.26 124 111.37"/><polygon class="cls-86" points="124 111.48 100.83 97.93 101.02 97.93 124 111.37 124 111.48"/><polygon class="cls-87" points="124 111.59 100.64 97.93 100.83 97.93 124 111.48 124 111.59"/><polygon class="cls-88" points="124 111.7 100.46 97.93 100.64 97.93 124 111.59 124 111.7"/><polygon class="cls-89" points="124 111.81 100.27 97.93 100.46 97.93 124 111.7 124 111.81"/><polygon class="cls-90" points="124 111.92 100.08 97.93 100.27 97.93 124 111.81 124 111.92"/><polygon class="cls-91" points="124 112.03 99.89 97.93 100.08 97.93 124 111.92 124 112.03"/><polygon class="cls-92" points="124 112.14 99.71 97.93 99.89 97.93 124 112.03 124 112.14"/><polygon class="cls-93" points="124 112.25 99.52 97.93 99.71 97.93 124 112.14 124 112.25"/><polygon class="cls-94" points="124 112.36 99.33 97.93 99.52 97.93 124 112.25 124 112.36"/><polygon class="cls-95" points="124 112.47 99.14 97.93 99.33 97.93 124 112.36 124 112.47"/><polygon class="cls-96" points="124 112.58 98.96 97.93 99.14 97.93 124 112.47 124 112.58"/><polygon class="cls-97" points="124 112.69 98.77 97.93 98.96 97.93 124 112.58 124 112.69"/><polygon class="cls-98" points="124 112.8 98.58 97.93 98.77 97.93 124 112.69 124 112.8"/><polygon class="cls-99" points="124 112.91 98.39 97.93 98.58 97.93 124 112.8 124 112.91"/><polygon class="cls-100" points="124 113.02 98.21 97.93 98.39 97.93 124 112.91 124 113.02"/><polygon class="cls-101" points="124 113.12 98.02 97.93 98.21 97.93 124 113.02 124 113.12"/><polygon class="cls-102" points="124 113.23 97.83 97.93 98.02 97.93 124 113.12 124 113.23"/><polygon class="cls-103" points="124 113.34 97.64 97.93 97.83 97.93 124 113.23 124 113.34"/><polygon class="cls-104" points="124 113.45 97.46 97.93 97.64 97.93 124 113.34 124 113.45"/><polygon class="cls-105" points="124 113.56 97.27 97.93 97.46 97.93 124 113.45 124 113.56"/><polygon class="cls-106" points="124 113.67 97.08 97.93 97.27 97.93 124 113.56 124 113.67"/><polygon class="cls-107" points="124 113.78 96.9 97.93 97.08 97.93 124 113.67 124 113.78"/><polygon class="cls-108" points="124 113.89 96.71 97.93 96.9 97.93 124 113.78 124 113.89"/><polygon class="cls-109" points="124 114 96.52 97.93 96.71 97.93 124 113.89 124 114"/><polygon class="cls-110" points="124 114.11 96.33 97.93 96.52 97.93 124 114 124 114.11"/><polygon class="cls-111" points="124 114.22 96.15 97.93 96.33 97.93 124 114.11 124 114.22"/><polygon class="cls-112" points="124 114.33 95.96 97.93 96.15 97.93 124 114.22 124 114.33"/><polygon class="cls-113" points="124 114.44 95.77 97.93 95.96 97.93 124 114.33 124 114.44"/><polygon class="cls-114" points="124 114.55 95.58 97.93 95.77 97.93 124 114.44 124 114.55"/><polygon class="cls-115" points="124 114.66 95.4 97.93 95.58 97.93 124 114.55 124 114.66"/><polygon class="cls-116" points="124 114.77 95.21 97.93 95.4 97.93 124 114.66 124 114.77"/><polygon class="cls-117" points="124 114.88 95.02 97.93 95.21 97.93 124 114.77 124 114.88"/><polygon class="cls-118" points="124 114.99 94.83 97.93 95.02 97.93 124 114.88 124 114.99"/><polygon class="cls-119" points="124 115.1 94.65 97.93 94.83 97.93 124 114.99 124 115.1"/><polygon class="cls-120" points="124 115.21 94.46 97.93 94.65 97.93 124 115.1 124 115.21"/><polygon class="cls-121" points="124 115.32 94.27 97.93 94.46 97.93 124 115.21 124 115.32"/><polygon class="cls-122" points="124 115.43 94.08 97.93 94.27 97.93 124 115.32 124 115.43"/><polygon class="cls-123" points="124 115.54 93.9 97.93 94.08 97.93 124 115.43 124 115.54"/><polygon class="cls-124" points="124 115.65 93.71 97.93 93.9 97.93 124 115.54 124 115.65"/><polygon class="cls-125" points="124 115.75 93.52 97.93 93.71 97.93 124 115.65 124 115.75"/><polygon class="cls-126" points="124 115.86 93.33 97.93 93.52 97.93 124 115.75 124 115.86"/><polygon class="cls-127" points="124 115.97 93.15 97.93 93.33 97.93 124 115.86 124 115.97"/><polygon class="cls-128" points="124 116.08 92.96 97.93 93.15 97.93 124 115.97 124 116.08"/><polygon class="cls-129" points="124 116.19 92.77 97.93 92.96 97.93 124 116.08 124 116.19"/><polygon class="cls-130" points="124 116.3 92.59 97.93 92.77 97.93 124 116.19 124 116.3"/><polygon class="cls-131" points="124 116.41 92.4 97.93 92.59 97.93 124 116.3 124 116.41"/><polygon class="cls-132" points="124 116.52 92.21 97.93 92.4 97.93 124 116.41 124 116.52"/><polygon class="cls-133" points="124 116.63 92.02 97.93 92.21 97.93 124 116.52 124 116.63"/><polygon class="cls-134" points="124 116.74 91.84 97.93 92.02 97.93 124 116.63 124 116.74"/><polygon class="cls-135" points="124 116.85 91.65 97.93 91.84 97.93 124 116.74 124 116.85"/><polygon class="cls-136" points="124 116.96 91.46 97.93 91.65 97.93 124 116.85 124 116.96"/><polygon class="cls-137" points="124 117.07 91.27 97.93 91.46 97.93 124 116.96 124 117.07"/><polygon class="cls-138" points="124 117.18 91.09 97.93 91.27 97.93 124 117.07 124 117.18"/><polygon class="cls-139" points="124 117.29 90.9 97.93 91.09 97.93 124 117.18 124 117.29"/><polygon class="cls-140" points="124 117.4 90.71 97.93 90.9 97.93 124 117.29 124 117.4"/><polygon class="cls-141" points="124 117.51 90.53 97.93 90.71 97.93 124 117.4 124 117.51"/><polygon class="cls-142" points="124 117.62 90.34 97.93 90.53 97.93 124 117.51 124 117.62"/><polygon class="cls-143" points="124 117.73 90.15 97.93 90.34 97.93 124 117.62 124 117.73"/><polygon class="cls-144" points="124 117.84 89.96 97.93 90.15 97.93 124 117.73 124 117.84"/><polygon class="cls-145" points="124 117.89 123.97 117.93 89.78 97.93 89.96 97.93 124 117.84 124 117.89"/><polygon class="cls-146" points="123.97 117.93 123.92 118.01 89.59 97.93 89.78 97.93 123.97 117.93"/><polygon class="cls-147" points="123.92 118.01 123.88 118.1 89.4 97.93 89.59 97.93 123.92 118.01"/><polygon class="cls-148" points="123.88 118.1 123.83 118.18 89.21 97.93 89.4 97.93 123.88 118.1"/><polygon class="cls-149" points="123.83 118.18 123.78 118.26 89.03 97.93 89.21 97.93 123.83 118.18"/><polygon class="cls-150" points="123.78 118.26 123.73 118.34 88.84 97.93 89.03 97.93 123.78 118.26"/><polygon class="cls-151" points="123.73 118.34 123.68 118.42 88.65 97.93 88.84 97.93 123.73 118.34"/><polygon class="cls-152" points="123.68 118.42 123.64 118.5 88.46 97.93 88.65 97.93 123.68 118.42"/><polygon class="cls-153" points="123.64 118.5 123.59 118.59 88.28 97.93 88.46 97.93 123.64 118.5"/><polygon class="cls-154" points="123.59 118.59 123.54 118.67 88.09 97.93 88.28 97.93 123.59 118.59"/><polygon class="cls-155" points="123.54 118.67 123.49 118.75 87.9 97.93 88.09 97.93 123.54 118.67"/><polygon class="cls-156" points="123.49 118.75 123.44 118.83 87.71 97.93 87.9 97.93 123.49 118.75"/><polygon class="cls-157" points="123.44 118.83 123.4 118.91 87.53 97.93 87.71 97.93 123.44 118.83"/><polygon class="cls-158" points="123.4 118.91 123.35 118.99 87.34 97.93 87.53 97.93 123.4 118.91"/><polygon class="cls-159" points="123.35 118.99 123.3 119.08 87.15 97.93 87.34 97.93 123.35 118.99"/><polygon class="cls-160" points="123.3 119.08 123.25 119.16 86.96 97.93 87.15 97.93 123.3 119.08"/><polygon class="cls-161" points="123.25 119.16 123.21 119.24 86.78 97.93 86.96 97.93 123.25 119.16"/><polygon class="cls-162" points="123.21 119.24 123.16 119.32 86.59 97.93 86.78 97.93 123.21 119.24"/><polygon class="cls-163" points="123.16 119.32 123.11 119.4 86.4 97.93 86.59 97.93 123.16 119.32"/><polygon class="cls-164" points="123.11 119.4 123.06 119.48 86.22 97.93 86.4 97.93 123.11 119.4"/><polygon class="cls-165" points="123.06 119.48 123.02 119.57 86.03 97.93 86.22 97.93 123.06 119.48"/><polygon class="cls-166" points="123.02 119.57 122.97 119.65 85.84 97.93 86.03 97.93 123.02 119.57"/><polygon class="cls-167" points="122.97 119.65 122.92 119.73 85.65 97.93 85.84 97.93 122.97 119.65"/><polygon class="cls-168" points="122.92 119.73 122.87 119.81 85.47 97.93 85.65 97.93 122.92 119.73"/><polygon class="cls-169" points="122.87 119.81 122.82 119.89 85.28 97.93 85.47 97.93 122.87 119.81"/><polygon class="cls-170" points="122.82 119.89 122.78 119.97 85.09 97.93 85.28 97.93 122.82 119.89"/><polygon class="cls-171" points="122.78 119.97 122.73 120.06 84.9 97.93 85.09 97.93 122.78 119.97"/><polygon class="cls-172" points="122.73 120.06 122.68 120.14 84.72 97.93 84.9 97.93 122.73 120.06"/><polygon class="cls-173" points="122.68 120.14 122.63 120.22 84.53 97.93 84.72 97.93 122.68 120.14"/><polygon class="cls-174" points="122.63 120.22 122.58 120.3 84.34 97.93 84.53 97.93 122.63 120.22"/><polygon class="cls-175" points="122.58 120.3 122.54 120.38 84.15 97.93 84.34 97.93 122.58 120.3"/><polygon class="cls-176" points="122.54 120.38 122.49 120.46 83.97 97.93 84.15 97.93 122.54 120.38"/><polygon class="cls-177" points="122.49 120.46 122.44 120.55 83.78 97.93 83.97 97.93 122.49 120.46"/><polygon class="cls-178" points="122.44 120.55 122.39 120.63 83.59 97.93 83.78 97.93 122.44 120.55"/><polygon class="cls-179" points="122.39 120.63 122.35 120.71 83.4 97.93 83.59 97.93 122.39 120.63"/><polygon class="cls-180" points="122.35 120.71 122.3 120.79 83.22 97.93 83.4 97.93 122.35 120.71"/><polygon class="cls-181" points="122.3 120.79 122.25 120.87 83.03 97.93 83.22 97.93 122.3 120.79"/><polygon class="cls-182" points="122.25 120.87 122.2 120.95 82.84 97.93 83.03 97.93 122.25 120.87"/><polygon class="cls-183" points="122.2 120.95 122.16 121.04 82.66 97.93 82.84 97.93 122.2 120.95"/><polygon class="cls-184" points="122.16 121.04 122.11 121.12 82.47 97.93 82.66 97.93 122.16 121.04"/><polygon class="cls-185" points="122.11 121.12 122.06 121.2 82.28 97.93 82.47 97.93 122.11 121.12"/><polygon class="cls-186" points="122.06 121.2 122.01 121.28 82.09 97.93 82.28 97.93 122.06 121.2"/><polygon class="cls-187" points="122.01 121.28 121.96 121.36 81.91 97.93 82.09 97.93 122.01 121.28"/><polygon class="cls-188" points="121.96 121.36 121.92 121.44 81.72 97.93 81.91 97.93 121.96 121.36"/><polygon class="cls-189" points="121.92 121.44 121.87 121.53 81.53 97.93 81.72 97.93 121.92 121.44"/><polygon class="cls-190" points="121.87 121.53 121.82 121.61 81.34 97.93 81.53 97.93 121.87 121.53"/><polygon class="cls-191" points="121.82 121.61 121.77 121.69 81.16 97.93 81.34 97.93 121.82 121.61"/><polygon class="cls-192" points="121.77 121.69 121.72 121.77 80.97 97.93 81.16 97.93 121.77 121.69"/><polygon class="cls-193" points="121.72 121.77 121.68 121.85 80.78 97.93 80.97 97.93 121.72 121.77"/><polygon class="cls-194" points="121.68 121.85 121.63 121.93 80.59 97.93 80.78 97.93 121.68 121.85"/><polygon class="cls-195" points="121.63 121.93 121.58 122.02 80.41 97.93 80.59 97.93 121.63 121.93"/><polygon class="cls-196" points="121.58 122.02 121.53 122.1 80.22 97.93 80.41 97.93 121.58 122.02"/><polygon class="cls-197" points="121.53 122.1 121.49 122.18 80.03 97.93 80.22 97.93 121.53 122.1"/><polygon class="cls-198" points="121.49 122.18 121.44 122.26 79.84 97.93 80.03 97.93 121.49 122.18"/><polygon class="cls-199" points="121.44 122.26 121.39 122.34 79.66 97.93 79.84 97.93 121.44 122.26"/><polygon class="cls-200" points="121.39 122.34 121.34 122.42 79.47 97.93 79.66 97.93 121.39 122.34"/><polygon class="cls-201" points="121.34 122.42 121.3 122.51 79.28 97.93 79.47 97.93 121.34 122.42"/><polygon class="cls-202" points="121.3 122.51 121.25 122.59 79.09 97.93 79.28 97.93 121.3 122.51"/><polygon class="cls-203" points="121.25 122.59 121.2 122.67 78.91 97.93 79.09 97.93 121.25 122.59"/><polygon class="cls-204" points="121.2 122.67 121.15 122.75 78.72 97.93 78.91 97.93 121.2 122.67"/><polygon class="cls-205" points="121.15 122.75 121.1 122.83 78.53 97.93 78.72 97.93 121.15 122.75"/><polygon class="cls-206" points="121.1 122.83 121.06 122.91 78.34 97.93 78.53 97.93 121.1 122.83"/><polygon class="cls-207" points="121.06 122.91 121.01 123 78.16 97.93 78.34 97.93 121.06 122.91"/><polygon class="cls-208" points="121.01 123 120.96 123.08 77.97 97.93 78.16 97.93 121.01 123"/><polygon class="cls-209" points="120.96 123.08 120.91 123.16 77.78 97.93 77.97 97.93 120.96 123.08"/><polygon class="cls-210" points="120.91 123.16 120.86 123.24 77.59 97.93 77.78 97.93 120.91 123.16"/><polygon class="cls-211" points="120.86 123.24 120.82 123.32 77.41 97.93 77.59 97.93 120.86 123.24"/><polygon class="cls-212" points="120.82 123.32 120.77 123.4 77.22 97.93 77.41 97.93 120.82 123.32"/><polygon class="cls-213" points="120.77 123.4 120.72 123.49 77.03 97.93 77.22 97.93 120.77 123.4"/><polygon class="cls-214" points="120.72 123.49 120.67 123.57 76.85 97.93 77.03 97.93 120.72 123.49"/><polygon class="cls-215" points="120.67 123.57 120.63 123.65 76.66 97.93 76.85 97.93 120.67 123.57"/><polygon class="cls-216" points="120.63 123.65 120.58 123.73 76.47 97.93 76.66 97.93 120.63 123.65"/><polygon class="cls-216" points="120.58 123.73 120.03 124.67 74.32 97.93 76.47 97.93 120.58 123.73"/><polygon class="cls-217" points="120.03 124.67 119.48 125.6 72.17 97.93 74.32 97.93 120.03 124.67"/><polygon class="cls-218" points="119.48 125.6 118.94 126.54 70.03 97.93 72.17 97.93 119.48 125.6"/><polygon class="cls-219" points="118.94 126.54 118.39 127.47 67.88 97.93 70.03 97.93 118.94 126.54"/><polygon class="cls-220" points="118.39 127.47 117.84 128.41 65.73 97.93 67.88 97.93 118.39 127.47"/><polygon class="cls-221" points="117.84 128.41 117.29 129.35 63.59 97.93 65.73 97.93 117.84 128.41"/><polygon class="cls-222" points="117.29 129.35 116.75 130.28 61.44 97.93 63.59 97.93 117.29 129.35"/><polygon class="cls-223" points="116.75 130.28 116.2 131.22 59.29 97.93 61.44 97.93 116.75 130.28"/><polygon class="cls-224" points="116.2 131.22 115.65 132.16 57.14 97.93 59.29 97.93 116.2 131.22"/><polygon class="cls-225" points="115.65 132.16 115.1 133.09 54.99 97.93 57.14 97.93 115.65 132.16"/><polygon class="cls-226" points="115.1 133.09 114.55 134.03 52.85 97.93 54.99 97.93 115.1 133.09"/><polygon class="cls-227" points="114.55 134.03 114.01 134.96 50.7 97.93 52.85 97.93 114.55 134.03"/><polygon class="cls-228" points="114.01 134.96 113.46 135.9 48.55 97.93 50.7 97.93 114.01 134.96"/><polygon class="cls-229" points="113.46 135.9 112.91 136.84 46.4 97.93 48.55 97.93 113.46 135.9"/><polygon class="cls-230" points="112.91 136.84 112.36 137.77 44.26 97.93 46.4 97.93 112.91 136.84"/><polygon class="cls-231" points="112.36 137.77 111.82 138.71 42.11 97.93 44.26 97.93 112.36 137.77"/><polygon class="cls-232" points="111.82 138.71 111.27 139.64 39.96 97.93 42.11 97.93 111.82 138.71"/><polygon class="cls-233" points="111.27 139.64 110.72 140.58 37.81 97.93 39.96 97.93 111.27 139.64"/><polygon class="cls-234" points="110.72 140.58 110.17 141.52 36.75 98.56 37.12 97.93 37.81 97.93 110.72 140.58"/><rect class="cls-235" x="72.19" y="77.42" width="1.08" height="85.06" transform="translate(-67.07 122.72) rotate(-59.67)"/><rect class="cls-236" x="71.64" y="78.35" width="1.08" height="85.06" transform="translate(-68.15 122.71) rotate(-59.67)"/><rect class="cls-237" x="71.09" y="79.29" width="1.08" height="85.06" transform="translate(-69.23 122.7) rotate(-59.67)"/><rect class="cls-238" x="70.55" y="80.23" width="1.08" height="85.06" transform="translate(-70.31 122.69) rotate(-59.67)"/><rect class="cls-239" x="70" y="81.16" width="1.08" height="85.06" transform="translate(-71.39 122.68) rotate(-59.67)"/><rect class="cls-240" x="69.45" y="82.1" width="1.08" height="85.06" transform="translate(-72.47 122.67) rotate(-59.67)"/><rect class="cls-241" x="68.9" y="83.04" width="1.08" height="85.06" transform="translate(-73.55 122.66) rotate(-59.67)"/><rect class="cls-242" x="68.36" y="83.97" width="1.08" height="85.06" transform="translate(-74.63 122.65) rotate(-59.67)"/><rect class="cls-243" x="67.81" y="84.91" width="1.08" height="85.06" transform="translate(-75.7 122.64) rotate(-59.67)"/><rect class="cls-244" x="67.26" y="85.84" width="1.08" height="85.06" transform="translate(-76.78 122.63) rotate(-59.67)"/><rect class="cls-245" x="66.71" y="86.78" width="1.08" height="85.06" transform="translate(-77.86 122.63) rotate(-59.67)"/><rect class="cls-246" x="66.17" y="87.72" width="1.08" height="85.06" transform="translate(-78.94 122.62) rotate(-59.67)"/><rect class="cls-247" x="65.62" y="88.65" width="1.08" height="85.06" transform="translate(-80.02 122.61) rotate(-59.67)"/><rect class="cls-248" x="65.07" y="89.59" width="1.08" height="85.06" transform="translate(-81.1 122.6) rotate(-59.67)"/><rect class="cls-249" x="64.52" y="90.52" width="1.08" height="85.06" transform="translate(-82.18 122.59) rotate(-59.67)"/><rect class="cls-250" x="63.97" y="91.46" width="1.08" height="85.06" transform="translate(-83.26 122.58) rotate(-59.67)"/><rect class="cls-251" x="63.43" y="92.4" width="1.08" height="85.06" transform="translate(-84.34 122.57) rotate(-59.67)"/><rect class="cls-252" x="62.88" y="93.33" width="1.08" height="85.06" transform="translate(-85.42 122.56) rotate(-59.67)"/><rect class="cls-253" x="62.33" y="94.27" width="1.08" height="85.06" transform="translate(-86.49 122.55) rotate(-59.67)"/><rect class="cls-254" x="61.78" y="95.2" width="1.08" height="85.06" transform="translate(-87.57 122.54) rotate(-59.67)"/><rect class="cls-255" x="61.24" y="96.14" width="1.08" height="85.06" transform="translate(-88.65 122.53) rotate(-59.67)"/><rect class="cls-256" x="60.69" y="97.08" width="1.08" height="85.06" transform="translate(-89.73 122.52) rotate(-59.67)"/><rect class="cls-257" x="60.14" y="98.01" width="1.08" height="85.06" transform="translate(-90.81 122.51) rotate(-59.67)"/><rect class="cls-258" x="59.59" y="98.95" width="1.08" height="85.06" transform="translate(-91.89 122.5) rotate(-59.67)"/><rect class="cls-259" x="59.05" y="99.88" width="1.08" height="85.06" transform="translate(-92.97 122.5) rotate(-59.67)"/><rect class="cls-260" x="58.5" y="100.82" width="1.08" height="85.06" transform="translate(-94.05 122.49) rotate(-59.67)"/><rect class="cls-261" x="57.95" y="101.76" width="1.08" height="85.06" transform="translate(-95.13 122.48) rotate(-59.67)"/><rect class="cls-262" x="57.4" y="102.69" width="1.08" height="85.06" transform="translate(-96.21 122.47) rotate(-59.67)"/><rect class="cls-263" x="56.86" y="103.63" width="1.08" height="85.06" transform="translate(-97.29 122.46) rotate(-59.67)"/><rect class="cls-264" x="56.31" y="104.56" width="1.08" height="85.06" transform="translate(-98.36 122.45) rotate(-59.67)"/><rect class="cls-265" x="55.76" y="105.5" width="1.08" height="85.06" transform="translate(-99.44 122.44) rotate(-59.67)"/><rect class="cls-266" x="55.21" y="106.44" width="1.08" height="85.06" transform="translate(-100.52 122.43) rotate(-59.67)"/><rect class="cls-267" x="54.67" y="107.37" width="1.08" height="85.06" transform="translate(-101.6 122.42) rotate(-59.67)"/><rect class="cls-268" x="54.12" y="108.31" width="1.08" height="85.06" transform="translate(-102.68 122.41) rotate(-59.67)"/><rect class="cls-269" x="53.57" y="109.25" width="1.08" height="85.06" transform="translate(-103.76 122.4) rotate(-59.67)"/><rect class="cls-270" x="53.02" y="110.18" width="1.08" height="85.06" transform="translate(-104.84 122.39) rotate(-59.67)"/><rect class="cls-271" x="52.48" y="111.12" width="1.08" height="85.06" transform="translate(-105.92 122.38) rotate(-59.67)"/><polygon class="cls-271" points="89.91 176.15 88.18 179.11 0 179.11 0 161.39 16.49 133.2 89.91 176.15"/></g><g class="cls-273"><polygon class="cls-139" points="66.61 47.27 66.54 60.08 66.54 47.27 66.61 47.27"/><polygon class="cls-140" points="66.71 47.27 66.54 75.92 66.54 60.08 66.61 47.27 66.71 47.27"/><polygon class="cls-141" points="66.81 47.27 66.54 91.76 66.54 75.92 66.71 47.27 66.81 47.27"/><polygon class="cls-142" points="66.9 47.27 66.54 107.61 66.54 91.76 66.81 47.27 66.9 47.27"/><polygon class="cls-143" points="67 47.27 66.54 123.45 66.54 107.61 66.9 47.27 67 47.27"/><polygon class="cls-144" points="67.09 47.27 66.55 137.25 66.54 137.25 66.54 123.45 67 47.27 67.09 47.27"/><polygon class="cls-145" points="67.19 47.27 66.64 137.25 66.55 137.25 67.09 47.27 67.19 47.27"/><polygon class="cls-146" points="67.28 47.27 66.74 137.25 66.64 137.25 67.19 47.27 67.28 47.27"/><polygon class="cls-147" points="67.38 47.27 66.83 137.25 66.74 137.25 67.28 47.27 67.38 47.27"/><polygon class="cls-148" points="67.47 47.27 66.93 137.25 66.83 137.25 67.38 47.27 67.47 47.27"/><polygon class="cls-149" points="67.57 47.27 67.03 137.25 66.93 137.25 67.47 47.27 67.57 47.27"/><polygon class="cls-150" points="67.67 47.27 67.12 137.25 67.03 137.25 67.57 47.27 67.67 47.27"/><polygon class="cls-151" points="67.76 47.27 67.22 137.25 67.12 137.25 67.67 47.27 67.76 47.27"/><polygon class="cls-152" points="67.86 47.27 67.31 137.25 67.22 137.25 67.76 47.27 67.86 47.27"/><polygon class="cls-153" points="67.95 47.27 67.41 137.25 67.31 137.25 67.86 47.27 67.95 47.27"/><polygon class="cls-154" points="68.05 47.27 67.51 137.25 67.41 137.25 67.95 47.27 68.05 47.27"/><polygon class="cls-155" points="68.14 47.27 67.6 137.25 67.51 137.25 68.05 47.27 68.14 47.27"/><polygon class="cls-156" points="68.24 47.27 67.7 137.25 67.6 137.25 68.14 47.27 68.24 47.27"/><polygon class="cls-157" points="68.34 47.27 67.79 137.25 67.7 137.25 68.24 47.27 68.34 47.27"/><polygon class="cls-158" points="68.43 47.27 67.89 137.25 67.79 137.25 68.34 47.27 68.43 47.27"/><polygon class="cls-159" points="68.53 47.27 67.98 137.25 67.89 137.25 68.43 47.27 68.53 47.27"/><polygon class="cls-160" points="68.62 47.27 68.08 137.25 67.98 137.25 68.53 47.27 68.62 47.27"/><polygon class="cls-161" points="68.72 47.27 68.18 137.25 68.08 137.25 68.62 47.27 68.72 47.27"/><polygon class="cls-162" points="68.81 47.27 68.27 137.25 68.18 137.25 68.72 47.27 68.81 47.27"/><polygon class="cls-163" points="68.91 47.27 68.37 137.25 68.27 137.25 68.81 47.27 68.91 47.27"/><polygon class="cls-164" points="69.01 47.27 68.46 137.25 68.37 137.25 68.91 47.27 69.01 47.27"/><polygon class="cls-165" points="69.1 47.27 68.56 137.25 68.46 137.25 69.01 47.27 69.1 47.27"/><polygon class="cls-166" points="69.2 47.27 68.65 137.25 68.56 137.25 69.1 47.27 69.2 47.27"/><polygon class="cls-167" points="69.29 47.27 68.75 137.25 68.65 137.25 69.2 47.27 69.29 47.27"/><polygon class="cls-168" points="69.39 47.27 68.85 137.25 68.75 137.25 69.29 47.27 69.39 47.27"/><polygon class="cls-169" points="69.48 47.27 68.94 137.25 68.85 137.25 69.39 47.27 69.48 47.27"/><polygon class="cls-170" points="69.58 47.27 69.04 137.25 68.94 137.25 69.48 47.27 69.58 47.27"/><polygon class="cls-171" points="69.68 47.27 69.13 137.25 69.04 137.25 69.58 47.27 69.68 47.27"/><polygon class="cls-172" points="69.77 47.27 69.23 137.25 69.13 137.25 69.68 47.27 69.77 47.27"/><polygon class="cls-173" points="69.87 47.27 69.33 137.25 69.23 137.25 69.77 47.27 69.87 47.27"/><polygon class="cls-174" points="69.96 47.27 69.42 137.25 69.33 137.25 69.87 47.27 69.96 47.27"/><polygon class="cls-175" points="70.06 47.27 69.52 137.25 69.42 137.25 69.96 47.27 70.06 47.27"/><polygon class="cls-176" points="70.16 47.27 69.61 137.25 69.52 137.25 70.06 47.27 70.16 47.27"/><polygon class="cls-177" points="70.25 47.27 69.71 137.25 69.61 137.25 70.16 47.27 70.25 47.27"/><polygon class="cls-178" points="70.35 47.27 69.8 137.25 69.71 137.25 70.25 47.27 70.35 47.27"/><polygon class="cls-179" points="70.44 47.27 69.9 137.25 69.8 137.25 70.35 47.27 70.44 47.27"/><polygon class="cls-180" points="70.54 47.27 70 137.25 69.9 137.25 70.44 47.27 70.54 47.27"/><polygon class="cls-181" points="70.63 47.27 70.09 137.25 70 137.25 70.54 47.27 70.63 47.27"/><polygon class="cls-182" points="70.73 47.27 70.19 137.25 70.09 137.25 70.63 47.27 70.73 47.27"/><polygon class="cls-183" points="70.83 47.27 70.28 137.25 70.19 137.25 70.73 47.27 70.83 47.27"/><polygon class="cls-184" points="70.92 47.27 70.38 137.25 70.28 137.25 70.83 47.27 70.92 47.27"/><polygon class="cls-185" points="71.02 47.27 70.47 137.25 70.38 137.25 70.92 47.27 71.02 47.27"/><polygon class="cls-186" points="71.11 47.27 70.57 137.25 70.47 137.25 71.02 47.27 71.11 47.27"/><polygon class="cls-187" points="71.21 47.27 70.67 137.25 70.57 137.25 71.11 47.27 71.21 47.27"/><polygon class="cls-188" points="71.3 47.27 70.76 137.25 70.67 137.25 71.21 47.27 71.3 47.27"/><polygon class="cls-189" points="71.4 47.27 70.86 137.25 70.76 137.25 71.3 47.27 71.4 47.27"/><polygon class="cls-190" points="71.5 47.27 70.95 137.25 70.86 137.25 71.4 47.27 71.5 47.27"/><polygon class="cls-191" points="71.59 47.27 71.05 137.25 70.95 137.25 71.5 47.27 71.59 47.27"/><polygon class="cls-192" points="71.69 47.27 71.14 137.25 71.05 137.25 71.59 47.27 71.69 47.27"/><polygon class="cls-193" points="71.78 47.27 71.24 137.25 71.14 137.25 71.69 47.27 71.78 47.27"/><polygon class="cls-194" points="71.88 47.27 71.33 137.25 71.24 137.25 71.78 47.27 71.88 47.27"/><polygon class="cls-195" points="71.97 47.27 71.43 137.25 71.33 137.25 71.88 47.27 71.97 47.27"/><polygon class="cls-196" points="72.07 47.27 71.53 137.25 71.43 137.25 71.97 47.27 72.07 47.27"/><polygon class="cls-197" points="72.17 47.27 71.62 137.25 71.53 137.25 72.07 47.27 72.17 47.27"/><polygon class="cls-198" points="72.26 47.27 71.72 137.25 71.62 137.25 72.17 47.27 72.26 47.27"/><polygon class="cls-199" points="72.36 47.27 71.81 137.25 71.72 137.25 72.26 47.27 72.36 47.27"/><polygon class="cls-200" points="72.45 47.27 71.91 137.25 71.81 137.25 72.36 47.27 72.45 47.27"/><polygon class="cls-201" points="72.55 47.27 72 137.25 71.91 137.25 72.45 47.27 72.55 47.27"/><polygon class="cls-202" points="72.64 47.27 72.1 137.25 72 137.25 72.55 47.27 72.64 47.27"/><polygon class="cls-203" points="72.74 47.27 72.2 137.25 72.1 137.25 72.64 47.27 72.74 47.27"/><polygon class="cls-204" points="72.84 47.27 72.29 137.25 72.2 137.25 72.74 47.27 72.84 47.27"/><polygon class="cls-205" points="72.93 47.27 72.39 137.25 72.29 137.25 72.84 47.27 72.93 47.27"/><polygon class="cls-206" points="73.03 47.27 72.48 137.25 72.39 137.25 72.93 47.27 73.03 47.27"/><polygon class="cls-207" points="73.12 47.27 72.58 137.25 72.48 137.25 73.03 47.27 73.12 47.27"/><polygon class="cls-208" points="73.22 47.27 72.67 137.25 72.58 137.25 73.12 47.27 73.22 47.27"/><polygon class="cls-209" points="73.31 47.27 72.77 137.25 72.67 137.25 73.22 47.27 73.31 47.27"/><polygon class="cls-210" points="73.41 47.27 72.87 137.25 72.77 137.25 73.31 47.27 73.41 47.27"/><polygon class="cls-211" points="73.51 47.27 72.96 137.25 72.87 137.25 73.41 47.27 73.51 47.27"/><polygon class="cls-212" points="73.6 47.27 73.06 137.25 72.96 137.25 73.51 47.27 73.6 47.27"/><polygon class="cls-213" points="73.7 47.27 73.15 137.25 73.06 137.25 73.6 47.27 73.7 47.27"/><polygon class="cls-214" points="73.79 47.27 73.25 137.25 73.15 137.25 73.7 47.27 73.79 47.27"/><polygon class="cls-215" points="73.89 47.27 73.34 137.25 73.25 137.25 73.79 47.27 73.89 47.27"/><polygon class="cls-216" points="73.98 47.27 73.44 137.25 73.34 137.25 73.89 47.27 73.98 47.27"/><polygon class="cls-216" points="75.22 47.27 74.67 137.25 73.44 137.25 73.98 47.27 75.22 47.27"/><polygon class="cls-217" points="76.44 47.27 75.9 137.25 74.67 137.25 75.22 47.27 76.44 47.27"/><polygon class="cls-218" points="77.68 47.27 77.13 137.25 75.9 137.25 76.44 47.27 77.68 47.27"/><polygon class="cls-219" points="78.91 47.27 78.36 137.25 77.13 137.25 77.68 47.27 78.91 47.27"/><polygon class="cls-220" points="80.14 47.27 79.59 137.25 78.36 137.25 78.91 47.27 80.14 47.27"/><polygon class="cls-221" points="81.37 47.27 80.82 137.25 79.59 137.25 80.14 47.27 81.37 47.27"/><polygon class="cls-222" points="82.6 47.27 82.05 137.25 80.82 137.25 81.37 47.27 82.6 47.27"/><polygon class="cls-223" points="83.83 47.27 83.28 137.25 82.05 137.25 82.6 47.27 83.83 47.27"/><polygon class="cls-224" points="85.06 47.27 84.51 137.25 83.28 137.25 83.83 47.27 85.06 47.27"/><polygon class="cls-225" points="86.29 47.27 85.74 137.25 84.51 137.25 85.06 47.27 86.29 47.27"/><polygon class="cls-226" points="87.52 47.27 86.97 137.25 85.74 137.25 86.29 47.27 87.52 47.27"/><polygon class="cls-227" points="88.75 47.27 88.2 137.25 86.97 137.25 87.52 47.27 88.75 47.27"/><polygon class="cls-228" points="89.98 47.27 89.44 137.25 88.2 137.25 88.75 47.27 89.98 47.27"/><polygon class="cls-229" points="91.21 47.27 90.67 137.25 89.44 137.25 89.98 47.27 91.21 47.27"/><polygon class="cls-230" points="92.44 47.27 91.9 137.25 90.67 137.25 91.21 47.27 92.44 47.27"/><polygon class="cls-231" points="93.67 47.27 93.13 137.25 91.9 137.25 92.44 47.27 93.67 47.27"/><polygon class="cls-232" points="94.9 47.27 94.36 137.25 93.13 137.25 93.67 47.27 94.9 47.27"/><polygon class="cls-233" points="96.13 47.27 95.59 137.25 94.36 137.25 94.9 47.27 96.13 47.27"/><polygon class="cls-234" points="97.36 47.27 96.82 137.25 95.59 137.25 96.13 47.27 97.36 47.27"/><polygon class="cls-235" points="98.59 47.27 98.05 137.25 96.82 137.25 97.36 47.27 98.59 47.27"/><polygon class="cls-236" points="99.82 47.27 99.28 137.25 98.05 137.25 98.59 47.27 99.82 47.27"/><polygon class="cls-237" points="101.05 47.27 100.51 137.25 99.28 137.25 99.82 47.27 101.05 47.27"/><polygon class="cls-238" points="102.28 47.27 101.74 137.25 100.51 137.25 101.05 47.27 102.28 47.27"/><polygon class="cls-239" points="103.51 47.27 102.97 137.25 101.74 137.25 102.28 47.27 103.51 47.27"/><polygon class="cls-240" points="104.74 47.27 104.2 137.25 102.97 137.25 103.51 47.27 104.74 47.27"/><polygon class="cls-241" points="105.97 47.27 105.43 137.25 104.2 137.25 104.74 47.27 105.97 47.27"/><polygon class="cls-242" points="107.2 47.27 106.66 137.25 105.43 137.25 105.97 47.27 107.2 47.27"/><polygon class="cls-243" points="108.43 47.27 107.89 137.25 106.66 137.25 107.2 47.27 108.43 47.27"/><polygon class="cls-244" points="109.66 47.27 109.12 137.25 107.89 137.25 108.43 47.27 109.66 47.27"/><polygon class="cls-245" points="110.89 47.27 110.35 137.25 109.12 137.25 109.66 47.27 110.89 47.27"/><polygon class="cls-246" points="112.13 47.27 111.58 137.25 110.35 137.25 110.89 47.27 112.13 47.27"/><polygon class="cls-247" points="113.36 47.27 112.81 137.25 111.58 137.25 112.13 47.27 113.36 47.27"/><polygon class="cls-248" points="114.58 47.27 114.04 137.25 112.81 137.25 113.36 47.27 114.58 47.27"/><polygon class="cls-249" points="115.82 47.27 115.27 137.25 114.04 137.25 114.58 47.27 115.82 47.27"/><polygon class="cls-250" points="117.05 47.27 116.5 137.25 115.27 137.25 115.82 47.27 117.05 47.27"/><polygon class="cls-251" points="118.28 47.27 117.73 137.25 116.5 137.25 117.05 47.27 118.28 47.27"/><polygon class="cls-252" points="119.51 47.27 118.96 137.25 117.73 137.25 118.28 47.27 119.51 47.27"/><polygon class="cls-253" points="120.74 47.27 120.19 137.25 118.96 137.25 119.51 47.27 120.74 47.27"/><polygon class="cls-254" points="121.97 47.27 121.42 137.25 120.19 137.25 120.74 47.27 121.97 47.27"/><polygon class="cls-255" points="123.2 47.27 122.65 137.25 121.42 137.25 121.97 47.27 123.2 47.27"/><polygon class="cls-256" points="124.43 47.27 123.88 137.25 122.65 137.25 123.2 47.27 124.43 47.27"/><polygon class="cls-257" points="125.66 47.27 125.11 137.25 123.88 137.25 124.43 47.27 125.66 47.27"/><polygon class="cls-258" points="126.89 47.27 126.34 137.25 125.11 137.25 125.66 47.27 126.89 47.27"/><polygon class="cls-259" points="128.12 47.27 127.58 137.25 126.34 137.25 126.89 47.27 128.12 47.27"/><polygon class="cls-260" points="129.35 47.27 128.81 137.25 127.58 137.25 128.12 47.27 129.35 47.27"/><polygon class="cls-261" points="130.58 47.27 130.04 137.25 128.81 137.25 129.35 47.27 130.58 47.27"/><polygon class="cls-262" points="131.81 47.27 131.27 137.25 130.04 137.25 130.58 47.27 131.81 47.27"/><polygon class="cls-263" points="133.04 47.27 132.5 137.25 131.27 137.25 131.81 47.27 133.04 47.27"/><polygon class="cls-264" points="134.27 47.27 133.73 137.25 132.5 137.25 133.04 47.27 134.27 47.27"/><polygon class="cls-265" points="135.5 47.27 134.96 137.25 133.73 137.25 134.27 47.27 135.5 47.27"/><polygon class="cls-266" points="136.73 47.27 136.19 137.25 134.96 137.25 135.5 47.27 136.73 47.27"/><polygon class="cls-267" points="137.96 47.27 137.42 137.25 136.19 137.25 136.73 47.27 137.96 47.27"/><polygon class="cls-268" points="139.19 47.27 138.65 137.25 137.42 137.25 137.96 47.27 139.19 47.27"/><polygon class="cls-269" points="140.42 47.27 139.88 137.25 138.65 137.25 139.19 47.27 140.42 47.27"/><polygon class="cls-270" points="141.65 47.27 141.11 137.25 139.88 137.25 140.42 47.27 141.65 47.27"/><polygon class="cls-271" points="142.88 47.27 142.34 137.25 141.11 137.25 141.65 47.27 142.88 47.27"/><polygon class="cls-271" points="142.34 137.25 142.88 47.27 165.04 47.27 165.04 137.25 142.34 137.25"/></g></g></g></svg>